# xmcd
#
# Track frame offsets:
#	150
#	15985
#	32450
#	51795
#	70462
#	87080
#	103310
#	116060
#	132595
#	146377
#
# Disc length: 2368 seconds
#
# Revision: 0
# Processed by: cddbd v1.5.1PL0 Copyright (c) Steve Scherf et al.
# Submitted via: dBpowerAMP V4.0
#
DISCID=86093e0a
DTITLE=George Canyon - GC101
DYEAR=2004
DGENRE=Country
TTITLE0=My Love's Unchanged
TTITLE1=I'll Burn That Bridge
TTITLE2=Love To Burn
TTITLE3=Scotia Home
TTITLE4=Ironwolf
TTITLE5=The Shaft
TTITLE6=Way Too Much
TTITLE7=Angelyna
TTITLE8=Enough Said
TTITLE9=Her Everything and Good Day To Ride
EXTD=
EXTT0=
EXTT1=
EXTT2=
EXTT3=
EXTT4=
EXTT5=
EXTT6=
EXTT7=
EXTT8=
EXTT9=
PLAYORDER=
